HIERARCHY
ROOT root
{
	OFFSET 0.000000 0.000000 0.000000
	CHANNELS 6 Xposition Yposition Zposition Zrotation Yrotation Xrotation
	JOINT lhip
	{
		OFFSET 0.058581 -0.082280 -0.017664
		CHANNELS 3 Zrotation Yrotation Xrotation
		JOINT lknee
		{
			OFFSET 0.043451 -0.386469 0.008037
			CHANNELS 3 Zrotation Yrotation Xrotation
			JOINT lankle
			{
				OFFSET -0.014790 -0.426874 -0.037428
				CHANNELS 3 Zrotation Yrotation Xrotation
				JOINT ltoe
				{
					OFFSET 0.041054 -0.060286 0.122042
					CHANNELS 3 Zrotation Yrotation Xrotation
					End Site
					{
						OFFSET 0.000000 0.000000 0.000000
					}
				}
			}
		}
	}
	JOINT rhip
	{
		OFFSET -0.060310 -0.090513 -0.013543
		CHANNELS 3 Zrotation Yrotation Xrotation
		JOINT rknee
		{
			OFFSET -0.043257 -0.383688 -0.004843
			CHANNELS 3 Zrotation Yrotation Xrotation
			JOINT rankle
			{
				OFFSET 0.019056 -0.420046 -0.034562
				CHANNELS 3 Zrotation Yrotation Xrotation
				JOINT rtoe
				{
					OFFSET -0.034840 -0.062106 0.130323
					CHANNELS 3 Zrotation Yrotation Xrotation
					End Site
					{
						OFFSET 0.000000 0.000000 0.000000
					}
				}
			}
		}
	}
	JOINT lowerback
	{
		OFFSET 0.004439 0.124404 -0.038385
		CHANNELS 3 Zrotation Yrotation Xrotation
		JOINT upperback
		{
			OFFSET 0.004488 0.137956 0.026820
			CHANNELS 3 Zrotation Yrotation Xrotation
			JOINT chest
			{
				OFFSET -0.002265 0.056032 0.002855
				CHANNELS 3 Zrotation Yrotation Xrotation
				JOINT lowerneck
				{
					OFFSET -0.013390 0.211636 -0.033468
					CHANNELS 3 Zrotation Yrotation Xrotation
					JOINT upperneck
					{
						OFFSET 0.010113 0.088937 0.050410
						CHANNELS 3 Zrotation Yrotation Xrotation
						End Site
						{
							OFFSET 0.000000 0.000000 0.000000
						}
					}
				}
				JOINT lclavicle
				{
					OFFSET 0.071702 0.114000 -0.018898
					CHANNELS 3 Zrotation Yrotation Xrotation
					JOINT lshoulder
					{
						OFFSET 0.122921 0.045205 -0.019046
						CHANNELS 3 Zrotation Yrotation Xrotation
						JOINT lelbow
						{
							OFFSET 0.255332 -0.015649 -0.022946
							CHANNELS 3 Zrotation Yrotation Xrotation
							JOINT lwrist
							{
								OFFSET 0.265709 0.012698 -0.007375
								CHANNELS 3 Zrotation Yrotation Xrotation
								End Site
								{
									OFFSET 0.000000 0.000000 0.000000
								}
							}
						}
					}
				}
				JOINT rclavicle
				{
					OFFSET -0.082954 0.112472 -0.023707
					CHANNELS 3 Zrotation Yrotation Xrotation
					JOINT rshoulder
					{
						OFFSET -0.113228 0.046853 -0.008472
						CHANNELS 3 Zrotation Yrotation Xrotation
						JOINT relbow
						{
							OFFSET -0.260127 -0.014369 -0.031269
							CHANNELS 3 Zrotation Yrotation Xrotation
							JOINT rwrist
							{
								OFFSET -0.269108 0.006794 -0.006027
								CHANNELS 3 Zrotation Yrotation Xrotation
								End Site
								{
									OFFSET 0.000000 0.000000 0.000000
								}
							}
						}
					}
				}
			}
		}
	}
}
MOTION
Frames: 16
Frame Time: 0.033333
-0.123397 -1.152620 0.886506 100.756259 -5.722651 102.681759 15.488310 6.227889 -42.585102 -4.205954 17.211737 77.696998 1.819470 4.009508 -18.217329 0.000000 -0.000000 0.000000 -2.758603 -4.904354 -7.843556 9.688763 1.580729 50.317135 -6.268222 1.530507 -35.535825 0.000000 -0.000000 0.000000 -7.073495 10.657845 26.336729 -2.208279 -2.923217 11.515488 0.225675 1.839135 -4.446352 -8.057320 13.437197 -14.875143 1.189859 4.519588 -10.882429 -22.978448 -14.225249 -2.933450 -31.681024 -8.966395 -4.517732 26.446439 -40.181956 -20.845522 -4.417643 -3.887453 -13.429607 25.837408 17.083046 5.604774 49.918988 14.606655 5.556033 -24.732462 45.674792 -24.519960 14.771773 7.424251 -33.405447 
-0.003416 -1.131386 0.894977 99.202690 -6.117323 104.950861 17.971870 2.700170 -52.267323 -6.870507 15.977362 57.816790 -0.422156 0.252183 -15.327997 0.000000 -0.000000 0.000000 -5.342677 -6.450278 2.309796 8.398208 6.392718 39.228302 0.989173 9.829546 -21.752198 0.000000 -0.000000 0.000000 -9.529961 14.952707 23.061430 -2.644448 -2.727214 9.369968 0.435580 3.291309 -3.808587 -7.606808 10.094765 -8.865267 4.575616 0.907644 -9.225383 -22.817924 -5.504901 -2.875310 -37.876883 -6.139430 -3.917867 38.828729 -46.652041 -36.999486 -4.605382 -5.551851 -25.021508 25.809210 10.178984 5.193326 53.858690 10.684974 7.393300 -24.715092 49.347900 -20.079634 15.810516 4.843166 -23.104116 
0.096085 -1.112955 0.897325 99.492902 -6.494477 106.139046 19.482979 -1.698238 -56.845928 -8.461922 11.394362 41.671264 -7.554270 -3.936053 -7.586095 0.000000 -0.000000 0.000000 -5.309922 -5.667525 10.330009 3.878474 8.551340 29.995654 8.003025 13.538132 -8.114804 0.000000 -0.000000 0.000000 -11.236576 17.776441 19.753320 -2.903826 -2.271233 10.662802 0.948501 4.159720 -4.688025 -7.441760 6.330908 -2.746901 8.179358 -2.100071 -12.577566 -22.417897 0.294273 -0.940516 -43.789938 -2.883151 -3.564626 51.347990 -48.905854 -48.292367 -9.859915 -8.868413 -30.891142 24.475108 5.804990 5.802178 56.528138 5.588937 7.557719 -21.512950 53.456457 -16.615180 17.243531 6.326815 -26.622665 
0.198009 -1.092196 0.885751 100.357863 -7.072993 103.650495 17.941903 -4.348873 -56.682047 -9.439272 9.467958 34.462729 -11.404779 -5.616443 -4.030424 0.000000 -0.000000 0.000000 -3.544017 -4.946033 18.703752 -0.580541 7.518070 29.084515 6.811661 7.784746 -7.261614 0.000000 -0.000000 0.000000 -11.953387 19.683592 19.234689 -3.004604 -1.433469 12.544599 1.397277 4.911913 -3.878802 -6.872610 3.240397 -0.523476 10.458527 -4.993804 -14.538966 -21.269987 5.601294 0.201303 -48.358790 1.352719 -3.593489 56.541310 -52.161585 -55.822548 -12.224680 -12.249658 -39.072130 23.136385 2.867098 5.469649 58.583486 0.673258 8.301859 -19.524379 57.063799 -16.852582 17.617431 7.273008 -29.629249 
0.294188 -1.071403 0.865262 100.748160 -6.751872 100.503793 15.029850 -5.870448 -55.620838 -6.911371 10.079886 42.019633 -3.003034 -5.423602 -8.157051 0.000000 -0.000000 0.000000 -3.261072 -6.467129 21.827059 -1.691712 2.484561 38.938599 2.232789 0.569798 -8.778840 0.000000 -0.000000 0.000000 -11.074458 20.518803 20.983751 -3.154873 0.403610 13.092784 1.437182 5.228228 -2.429998 -5.230593 -0.979080 -1.782029 11.318807 -5.839861 -14.725339 -21.426578 8.822664 2.147360 -52.197399 5.105623 -3.737312 62.746094 -56.048047 -62.445629 -11.886842 -13.203056 -44.903169 22.573901 1.355026 5.256269 59.528554 -3.341710 8.476455 -20.660820 59.626651 -19.514966 18.490919 7.420680 -28.744186 
0.379463 -1.052902 0.854498 100.990097 -7.427459 99.508749 14.949310 -9.171064 -55.197947 -6.427308 10.608038 54.658897 -0.737561 -4.422112 -18.980351 0.000000 -0.000000 0.000000 -4.642527 -7.987222 16.039864 -3.063405 -3.022260 56.432434 3.444183 -1.168780 -8.454032 0.000000 -0.000000 0.000000 -11.936402 21.007097 22.240197 -2.975876 1.088807 14.707754 1.797632 5.266003 -3.297442 -2.591266 -3.564442 -1.865599 11.743572 -5.777098 -17.979800 -23.230442 10.136919 2.536227 -56.027199 6.531869 -3.100122 70.908780 -57.919638 -69.908480 -13.487969 -15.881358 -48.478532 23.126608 0.784272 4.991745 59.098332 -5.002939 7.826700 -22.922350 59.200108 -20.848881 20.332378 6.077449 -25.119851 
0.464805 -1.035576 0.850460 99.281862 -7.519762 101.114639 12.098093 -8.501561 -51.164484 -3.521284 10.546425 58.408160 3.352923 -3.894589 -27.671805 0.000000 -0.000000 0.000000 -6.256802 -8.452599 3.204107 -3.031501 -5.600733 74.298961 2.558269 0.084707 -9.879910 0.000000 -0.000000 0.000000 -12.526631 17.592957 16.328636 -3.509475 4.079101 23.498054 -0.061794 5.305119 -8.051151 -0.657364 -4.324848 0.991476 12.788194 -5.182090 -23.147859 -24.909006 9.608569 3.016719 -56.917326 5.114988 -1.831594 85.164560 -60.106850 -81.914047 -14.732542 -16.226645 -50.107005 24.684682 1.599990 7.099388 59.086787 -2.401226 6.671924 -24.607034 55.961185 -24.511906 21.016621 4.976688 -23.091458 
0.553654 -1.031408 0.861859 96.220202 -8.214413 99.645194 6.700789 -2.258561 -39.332292 -1.751818 8.319560 54.673175 4.875601 -5.667455 -32.190635 0.000000 -0.000000 0.000000 -6.886047 -9.067561 -7.655341 -2.126902 -4.936887 84.950370 1.404619 3.522723 -12.218828 0.000000 -0.000000 0.000000 -14.182836 14.796003 15.567688 -4.683359 6.986874 29.283870 -0.171788 5.337708 -12.906744 0.194289 -3.569571 3.882996 13.537914 -3.984315 -27.068922 -24.915521 5.745900 1.325845 -54.635596 2.714803 1.462120 103.565929 -59.273800 -98.527505 -14.752083 -15.072635 -46.145715 25.697819 4.615011 7.592477 58.502172 -2.128284 6.811240 -23.894112 55.781465 -31.255853 20.558499 5.135738 -25.653964 
0.636246 -1.038911 0.884620 94.610968 -8.129321 96.137485 5.383953 4.525525 -23.357578 -3.345429 4.182911 44.087688 2.976805 -6.860243 -32.080889 0.000000 -0.000000 0.000000 -4.492571 -8.857267 -16.733888 -2.255303 -4.989201 88.131233 0.206859 5.080634 -16.070365 0.000000 -0.000000 0.000000 -15.891738 14.242164 22.543899 -4.792596 6.814802 25.013689 1.926318 4.643434 -13.960376 0.334221 -1.281944 4.258524 12.847157 -2.872164 -25.844690 -24.377006 1.908659 -1.502294 -49.415053 -3.009123 3.425746 118.267732 -55.581257 -109.235572 -11.869322 -15.506061 -40.672588 25.572088 6.216745 6.500771 58.810374 -2.812189 6.978168 -25.890712 57.117765 -34.223614 19.867894 5.740784 -26.874445 
0.705021 -1.044312 0.911013 98.772462 -5.138060 97.427859 9.534745 3.734328 -17.681749 -6.267181 0.155957 37.926858 -0.004982 -4.703122 -27.428651 0.000000 -0.000000 0.000000 0.167795 -7.113698 -30.417399 -3.156834 -10.506067 84.297635 -2.137079 2.440024 -18.132987 0.000000 -0.000000 0.000000 -13.089028 7.944201 27.302209 -3.772325 3.924671 13.338065 3.082675 2.845768 -8.238505 -0.221779 1.476696 0.875074 12.259576 -2.032256 -18.689553 -21.084814 -0.432704 -3.912830 -47.006389 -10.756982 2.992884 132.184901 -54.148924 -115.810928 -12.173753 -12.583726 -30.687754 22.694783 5.751974 5.353428 61.905589 -1.928394 6.052845 -27.524265 59.008005 -28.909220 19.761768 6.070659 -27.119576 
0.780574 -1.048841 0.939286 102.222006 -1.911611 99.237429 14.692420 2.053872 -12.494233 -7.451512 -3.723067 32.171829 -4.945229 -4.652877 -19.903737 0.000000 -0.000000 0.000000 1.433152 -3.914258 -40.506308 -3.165881 -16.054767 72.625920 -2.886945 0.083754 -19.044824 0.000000 -0.000000 0.000000 -9.555036 0.753145 29.430210 -2.224379 1.806115 5.511826 2.620256 0.123407 -3.878294 0.421799 5.963620 -4.759199 10.685649 -1.400552 -10.537232 -19.914849 -0.253638 -5.067067 -43.489984 -14.042065 3.214340 147.628425 -50.995751 -121.526529 -11.868970 -13.092435 -18.807970 21.108355 4.310968 4.204704 63.664070 -0.808621 7.286339 -26.334749 62.474529 -21.212918 18.079917 7.674665 -30.320352 
0.870557 -1.051771 0.961283 99.518804 -0.600983 99.983134 16.600605 1.609461 -2.374128 -7.110621 -5.842008 23.467949 -8.933917 -3.212484 -11.236394 0.000000 -0.000000 0.000000 0.064760 0.541428 -44.816416 -0.032915 -16.647920 54.302657 -3.212491 -0.423793 -18.563035 0.000000 -0.000000 0.000000 -8.997350 -3.117897 27.012419 -1.834066 1.820276 5.919459 1.849636 -0.813603 -4.213183 0.797250 8.515216 -3.499828 10.099847 1.061232 -9.687683 -20.507704 0.386302 -4.377172 -39.877056 -12.764114 7.685424 161.096165 -51.625629 -130.744768 1.768127 -9.372019 -8.566323 21.355403 3.354181 4.862292 64.424709 -0.845453 8.936201 -30.267811 65.400008 -22.568861 12.740011 6.029171 -30.423490 
0.964571 -1.053111 0.969512 96.000956 -0.548157 100.984793 15.799643 1.780306 5.036373 -5.337053 -4.420103 20.486096 -5.989748 2.921897 -9.429429 0.000000 -0.000000 0.000000 -1.959602 3.306658 -46.728406 4.356477 -13.062913 33.818488 -1.377104 -1.796833 -13.011875 0.000000 -0.000000 0.000000 -8.559200 -5.848521 22.095328 -2.022344 1.226446 6.736490 1.220506 -1.867705 -3.093537 0.805566 9.142676 -3.576785 9.697710 6.072378 -8.058462 -21.131616 1.354174 -2.418004 -39.352358 -9.367256 12.657811 171.763675 -60.435496 -140.050748 16.700019 -8.630759 0.129160 21.174447 3.157351 6.062649 63.567321 -0.707943 12.345022 -31.702354 68.539587 -25.475130 6.999724 4.929031 -32.889034 
1.060791 -1.055512 0.964054 92.726385 -1.718468 100.158798 14.963213 3.718547 10.744960 -4.178449 -2.410447 26.194954 -3.397517 6.905786 -10.061357 0.000000 -0.000000 0.000000 -2.456351 3.415011 -46.066695 4.775723 -9.302731 20.426468 1.637799 -3.145976 -2.729125 0.000000 -0.000000 0.000000 -9.503517 -6.304761 18.266361 -1.747101 -0.324738 7.670487 1.185532 -2.969469 -1.597565 1.576159 10.647523 -2.951553 8.820883 9.415339 -6.783748 -21.985489 0.085283 -0.440601 -38.699220 -7.032319 14.199723 -169.695156 -79.305832 -158.271997 23.543023 -12.437297 8.872383 21.952471 3.040961 6.417232 61.384722 0.224779 14.144966 -33.227613 70.047250 -25.902673 4.256097 3.950521 -31.320747 
1.157801 -1.060204 0.950737 91.233317 -2.343140 96.545607 15.949822 5.405695 15.312417 -5.028457 -4.944994 39.016300 -3.203333 5.379982 -11.220276 0.000000 -0.000000 0.000000 -1.098023 1.759533 -43.172402 4.882664 -8.116395 18.747344 1.826031 -1.995879 0.473278 0.000000 -0.000000 0.000000 -9.527519 -6.231113 18.663541 -1.247931 -2.307381 8.212045 1.091000 -4.049813 -1.702395 2.109180 12.457230 -2.114151 7.609332 10.595934 -5.333540 -23.332569 -3.742975 -0.075955 -38.583718 -6.506199 12.534911 -23.970266 -76.827517 60.288105 16.895214 -12.607808 22.239111 23.031175 4.380141 6.148344 60.321484 1.226945 12.635645 -34.250688 70.221970 -24.031300 5.234354 4.131721 -31.367046 
1.251793 -1.065890 0.928676 90.085562 -2.558858 93.734630 16.943374 6.006620 16.329540 -4.995847 -4.509423 55.130697 -2.850669 5.117065 -12.145795 0.000000 -0.000000 0.000000 -0.996206 2.036113 -42.156610 7.090048 -9.231701 27.597865 2.729108 -2.090175 1.727021 0.000000 -0.000000 0.000000 -9.283394 -6.236577 17.315138 -0.248871 -3.200251 9.981383 0.862420 -4.432943 -2.617458 2.397107 14.355750 -1.797770 6.502120 9.963075 -3.701595 -23.903257 -8.464423 -0.238671 -42.610864 -11.008737 10.812681 -3.267658 -50.705268 34.025433 2.756858 -5.847442 22.074709 24.576978 5.444523 6.313862 58.816347 3.073523 12.656697 -35.884690 68.207869 -24.213606 9.189394 4.237687 -32.358515 
